<?xml version="1.0" encoding="utf-8"?>
<!-- Generator: Adobe Illustrator 28.0.0, SVG Export Plug-In . SVG Version: 6.00 Build 0)  -->
<svg version="1.1" id="Layer_1" xmlns="http://www.w3.org/2000/svg" xmlns:xlink="http://www.w3.org/1999/xlink" x="0px" y="0px"
	 viewBox="0 0 640 255.3" style="enable-background:new 0 0 640 255.3;" xml:space="preserve">
<style type="text/css">
	.st0{fill:#FFFFFF;}
	.st1{opacity:0.4;}
	.st2{fill:#F7DC3C;}
	.st3{fill:#EE4523;}
</style>
<g>
	<g>
		<g>
			<path class="st0" d="M433.6,250.6h-23.7c-2.7,0-4.8-2.2-4.8-4.8V144.2c0-2.7,2.2-4.8,4.8-4.8h23.7c2.7,0,4.8,2.2,4.8,4.8v101.6
				C438.4,248.5,436.4,250.6,433.6,250.6z"/>
			<path class="st0" d="M351.1,216.5v-72.3c0-2.7-2.2-4.8-4.8-4.8h-23.7c-2.7,0-4.8,2.2-4.8,4.8v77.2v24.4c0,2.7,2.2,4.8,4.8,4.8
				H351h42.2c2.7,0,4.8-2.2,4.8-4.8v-19.6c0-2.7-2.2-4.8-4.8-4.8h-37.3C353.3,221.3,351.1,219.3,351.1,216.5z"/>
			<path class="st0" d="M491.9,139.4c-1.2,0-3.8,0-3.9,0h-11.8h-26.1c-2.7,0-4.8,2.2-4.8,4.8v101.6c0,2.7,2.2,4.8,4.8,4.8h23.7
				c2.7,0,4.8-2.2,4.8-4.8v-28c0-0.9,0.8-1.4,1.5-1.2c11.9,3.5,27.4,3.8,40.9-9.5C549.7,178.4,522.7,139.4,491.9,139.4z
				 M500.2,188.1c-12.7,9-26.7-5.1-17.7-17.7c0.3-0.4,0.7-0.8,1.1-1.1c12.7-9,26.7,5.1,17.7,17.7
				C500.9,187.5,500.5,187.8,500.2,188.1z"/>
			<path class="st0" d="M635.6,157l-16.3-16.3c-1.9-1.9-4.7-1.9-6.7,0l-26,26c-0.7,0.7-2,0.7-2.6,0l-26-26c-1.9-1.9-4.7-1.9-6.7,0
				L535.1,157c-1.9,1.9-1.9,4.7,0,6.7l33.4,33.4c0.3,0.3,0.5,0.9,0.5,1.3V246c0,2.6,2.2,4.6,4.6,4.6h23.1c2.6,0,4.6-2.2,4.6-4.6
				v-47.5c0-0.5,0.2-1,0.5-1.3l33.4-33.4C637.3,161.8,637.3,158.8,635.6,157z"/>
		</g>
		<path class="st0" d="M308.8,244.8l-42.3-48.7c-1-1.2-1-3.1,0.1-4.3l41.9-45.7c2.2-2.4,0.5-6.1-2.7-6.1h-27.9
			c-2.9,0-5.6,1.2-7.4,3.3L247.1,170c-1.2,1.4-3.6,0.5-3.6-1.3v-25.6c0-1.6-1.3-3-3-3h-27.2c-1.6,0-3,1.3-3,3v104.5c0,1.6,1.3,3,3,3
			h27.2c1.6,0,3-1.3,3-3v-28.9c0-2,2.5-2.8,3.7-1.2l23.3,29.6c1.9,2.4,4.7,3.8,7.7,3.8H306C309.3,250.8,310.9,247.2,308.8,244.8z"/>
	</g>
	<g class="st1">
		<path class="st0" d="M240.8,76.4c2.7,2.6,4,6.2,4,10.8c0,3.1-0.6,5.8-1.9,7.9c-1.2,2.3-3,3.9-5.3,5.1c-2.3,1.1-4.8,1.8-7.7,1.8
			h-10.6v16.6h-9.1V72.5H230C234.5,72.5,238.1,73.7,240.8,76.4z M228.9,93.8c2,0,3.5-0.6,4.7-1.8c1.2-1.1,1.9-2.8,1.9-4.8
			c0-2.2-0.6-3.8-1.9-4.9c-1.2-1.1-2.9-1.8-4.7-1.8h-9.5v13.4L228.9,93.8L228.9,93.8z"/>
		<path class="st0" d="M285.7,74.7c3.6,2,6.4,4.6,8.5,8.2s3.1,7.7,3.1,12.5s-1,9-3.1,12.5c-2.1,3.6-4.8,6.3-8.5,8.2
			s-7.6,2.9-12.3,2.9s-8.8-0.9-12.4-2.9s-6.5-4.6-8.6-8.2s-3.1-7.7-3.1-12.5s1-9,3.1-12.5c2.1-3.6,4.8-6.3,8.6-8.2
			c3.6-2,7.7-2.9,12.4-2.9C278,71.8,282.1,72.8,285.7,74.7z M260.7,103.8c1.2,2.4,3,4.1,5.2,5.4s4.7,1.9,7.6,1.9
			c2.8,0,5.4-0.6,7.5-1.9c2.2-1.2,3.9-3.1,5.2-5.4c1.2-2.4,1.9-5.2,1.9-8.4s-0.6-6-1.9-8.4c-1.2-2.4-2.9-4.1-5.2-5.4
			c-2.2-1.2-4.7-1.9-7.5-1.9c-2.9,0-5.4,0.6-7.6,1.9c-2.2,1.2-3.9,3.1-5.2,5.4c-1.2,2.4-1.9,5.2-1.9,8.4S259.5,101.4,260.7,103.8z"
			/>
		<path class="st0" d="M333.6,88.4l-10,30h-7.7l-16.1-46h10l10,30.9l10-30.9h7.5l10,30.9l10-30.9h10l-16.1,46.1h-7.7L333.6,88.4z"/>
		<path class="st0" d="M382,90.9h17.6v7.9H382v11.5h20.3v8.1h-29.5V72.5h29.4v8h-20.3v10.4H382z"/>
		<path class="st0" d="M410,72.5h19.5c4.4,0,8,1.3,10.7,3.9s4,6.2,4,10.8c0,3.2-0.6,5.9-2,8.1c-1.3,2.3-3.2,3.9-5.6,5.1l10,18.2
			h-10.3l-9.1-16.7h-0.8h-7.2v16.7h-9.1V72.5H410z M428.3,93.7c2,0,3.6-0.6,4.8-1.8s1.9-2.8,1.9-4.8c0-2.1-0.6-3.7-1.9-4.8
			c-1.2-1.1-2.8-1.8-4.8-1.8H419v13.2L428.3,93.7L428.3,93.7z"/>
		<path class="st0" d="M462.5,90.9h17.6v7.9h-17.6v11.5h20.3v8.1h-29.5V72.5h29.4v8h-20.3v10.4H462.5z"/>
		<path class="st0" d="M520.9,75.1c3.4,1.9,6.2,4.5,8.1,7.9c2,3.5,3,7.5,3,12.3s-1,8.9-3,12.3c-2,3.5-4.7,6.1-8.1,7.9
			c-3.4,1.9-7.4,2.8-11.8,2.8h-18.8V72.5h18.9C513.6,72.5,517.5,73.4,520.9,75.1z M509.3,110.6c4.2,0,7.5-1.3,10-3.9
			s3.7-6.4,3.7-11.2c0-4.9-1.2-8.7-3.7-11.2c-2.5-2.6-5.8-3.9-10-3.9h-9.8v30.3L509.3,110.6L509.3,110.6z"/>
		<path class="st0" d="M583.2,75.7c2.6,2.2,3.9,5.4,3.9,9.5c0,2.1-0.4,3.9-1.1,5.4c-0.8,1.5-1.9,2.8-3.1,3.7c1.8,0.8,3.2,2.1,4.3,4
			s1.8,4.1,1.8,6.9c0,4.3-1.3,7.6-4,9.9s-6.3,3.4-10.7,3.4h-20.4v-46H573C577.1,72.5,580.6,73.5,583.2,75.7z M572.4,91
			c1.6,0,3-0.4,4-1.2c0.9-0.8,1.4-2.2,1.4-3.9c0-1.8-0.5-3.1-1.6-4c-1-0.9-2.6-1.3-4.4-1.3h-8.9V91H572.4L572.4,91z M573.1,110.4
			c2.1,0,3.6-0.5,4.8-1.4s1.8-2.4,1.8-4.3c0-2-0.6-3.4-1.8-4.3c-1.1-0.9-2.7-1.4-4.6-1.4h-10.4v11.5L573.1,110.4L573.1,110.4z"/>
		<path class="st0" d="M609,118.4v-17.8l-17.5-28.3h10.6l11.4,19.2L625,72.4h10.6l-17.4,28.3v17.8L609,118.4L609,118.4z"/>
	</g>
	<g>
		<g>
			<g>
				<path class="st2" d="M197,244l-51.9-80.1c-0.9-1.5-0.9-3.3,0-4.7l48.7-80.1c1.8-3.1-0.3-6.8-3.8-6.8l-30.7,7
					c-24.4,5.6-31.6,19.8-46.3,40.1c-2.8,4-4.7,6.6-4.7,6.6c-2.2,4.1-8.4,2.5-8.4-2.2V57.9C81.2,57.9,71.5,64.7,64,71
					c-23.4,19.2-28.4,43.1-28.4,73.5v101.9c0,2.5,2,4.5,4.5,4.5h55.5c2.5,0,4.5-2,4.5-4.5v-50.8c0-4.5,5.9-6.1,8.3-2.3l18.8,55.5
					c0.9,1.5,2.3,2.2,3.8,2.2h62.5C196.8,250.8,199,246.9,197,244z M86.9,81.3c-3.4,0-6.1-2.7-6.1-6.1s2.7-6.1,6.1-6.1
					s6.1,2.7,6.1,6.1C93,78.6,90.3,81.3,86.9,81.3z"/>
			</g>
			<path class="st3" d="M27.4,116.6c0.5,1.3,4.8-68.3,72.9-68.8c0,0-55.1-64.7-75.6-35.9c0,0-10.1,15.8,9.4,20.8
				c0,0-31.5,8.3-30.9,30.2c0.2,6.8,7.2,11.3,13.5,8.6c3.6-1.6,8.3-4.7,14.2-10.2C30.8,61.1,17,88.8,27.4,116.6z"/>
		</g>
		<path class="st3" d="M107.2,60.6v16.9c0,1.3,1.3,2,2.3,1.3L125.7,68l-16.2-8.8C108.4,58.8,107.2,59.5,107.2,60.6z"/>
	</g>
</g>
</svg>
